<svg width="104" height="104" viewBox="0 0 104 104" fill="none" xmlns="http://www.w3.org/2000/svg">
<path d="M33.0432 49.6818L36.1167 37.4308L36.1231 37.399L36.1251 37.3887L36.1252 37.3888C36.2187 36.9679 36.4151 36.6175 36.6559 36.3856L33.0432 49.6818ZM33.0432 49.6818L33.0381 49.6807C32.3705 52.6827 29.6711 54.8532 26.5974 54.8532H21.3605C18.2867 54.8532 15.5873 52.6827 14.9198 49.6807L14.9199 49.6807L14.9166 49.6675L11.8425 37.419L11.8397 37.4079L11.8365 37.397L11.8283 37.3699C11.7326 36.9544 11.5372 36.6093 11.2967 36.3805L11.2955 36.3794C7.73872 33.0176 5.5 28.2267 5.5 22.9549C5.5 12.7924 13.8184 4.5027 23.9767 4.5C23.9768 4.5 23.9768 4.5 23.9769 4.5H23.981C23.981 4.5 23.9811 4.5 23.9811 4.5C34.1393 4.5027 42.4551 12.7927 42.4578 22.9549L33.0432 49.6818ZM36.6666 36.3748L36.6667 36.375C40.2224 33.0147 42.4578 28.2247 42.4578 22.9551L36.6666 36.3748ZM36.6666 36.3748L36.6566 36.3848L36.6666 36.3748ZM41.8059 7.0298C43.291 6.84909 44.7855 6.73256 46.3067 6.73256C67.1074 6.73256 84.3245 22.5503 86.7372 43.7151L86.7536 43.8583L86.8436 43.9708L96.9206 56.5638C96.9206 56.5638 96.9206 56.5638 96.9206 56.5639C98.1765 58.1337 98.592 60.223 98.0383 62.1528C97.4824 64.0869 96.0201 65.6363 94.1237 66.3014L87.4439 68.6385L87.109 68.7557V69.1105V80.6657C87.109 84.7841 84.489 88.4206 80.5835 89.7188L80.5832 89.719L68.1254 93.8701L68.1239 93.8706C67.4668 94.0918 67.016 94.7029 67.016 95.4041V96.6512C67.016 98.2236 65.7396 99.5 64.1671 99.5C62.5947 99.5 61.3183 98.2236 61.3183 96.6512V95.4041C61.3183 92.253 63.3291 89.4649 66.3223 88.4656C66.3224 88.4656 66.3225 88.4656 66.3226 88.4656L78.7797 84.3146L41.8059 7.0298ZM41.8059 7.0298C43.2638 8.66068 44.4921 10.4921 45.4652 12.4737C45.5096 12.4706 45.5546 12.4673 45.6005 12.464C45.6322 12.4617 45.6642 12.4593 45.6969 12.457C45.8887 12.4433 46.0945 12.4302 46.3067 12.4302C64.4885 12.4302 79.4663 26.5505 81.1651 45.2396M41.8059 7.0298L81.391 47.077M81.1651 45.2396L80.6671 45.2849L81.165 45.239C81.1651 45.2392 81.1651 45.2394 81.1651 45.2396ZM81.1651 45.2396C81.2164 45.795 81.4312 46.3251 81.7821 46.7655M81.7821 46.7655L81.7816 46.7649L81.391 47.077M81.7821 46.7655L92.4691 60.1384L92.9095 60.6895L92.2436 60.9225L83.3231 64.0443M81.7821 46.7655L81.391 47.077M81.391 47.077L83.3231 64.0443M83.3231 64.0443L83.157 63.5727L83.3221 64.0446L83.3231 64.0443ZM83.3231 64.0443C82.1775 64.4477 81.4113 65.5235 81.4113 66.734V80.6657C81.4113 82.3251 80.3554 83.7909 78.7802 84.3145L83.3231 64.0443ZM23.9767 10.1977H23.9764C16.8797 10.202 11.1977 15.8611 11.1977 22.9549C11.1977 26.6321 12.7383 29.9003 15.2089 32.2355C16.3586 33.3226 17.0771 34.7119 17.3971 36.1534L17.3969 36.1534L17.4002 36.1669L19.4453 44.3079L19.5403 44.6861H19.9302H28.0276H28.4176L28.5126 44.3078L30.5601 36.1524L30.5652 36.1534C30.8851 34.7119 31.6036 33.3226 32.7534 32.2354C35.2215 29.9043 36.7589 26.6341 36.7602 22.9595V22.9592C36.7583 15.8653 31.0785 10.202 23.9814 10.1977H23.9811H23.9767ZM18.6304 79.4003L18.6304 79.4003C10.29 71.4922 5.50436 60.2836 5.50436 48.6512C5.50436 45.4555 5.892 42.357 6.56588 39.3619C6.62474 39.4274 6.68442 39.4925 6.74495 39.5568L9.58903 50.8814C9.99755 52.7091 10.8193 54.332 11.9058 55.7122C13.3546 63.1547 17.0439 70.047 22.5513 75.2684C26.7564 79.2595 29.0625 84.4511 29.0625 89.8837V96.6512C29.0625 98.2236 27.7861 99.5 26.2137 99.5C24.6412 99.5 23.3648 98.2236 23.3648 96.6512V89.8837C23.3648 86.0092 21.6712 82.2847 18.6304 79.4003Z" fill="#F3A31B" stroke="white"/>
</svg>
