<svg width="104" height="104" viewBox="0 0 104 104" fill="none" xmlns="http://www.w3.org/2000/svg">
<mask id="path-1-inside-1_850_3226" fill="white">
<path d="M51.7867 5C38.293 5 27.2614 15.9226 26.8615 29.4545C26.7517 29.9528 26.7532 30.4696 26.8659 30.9672C27.2706 44.4949 38.2961 55.4128 51.7867 55.4128C65.5317 55.4128 76.7473 44.0868 76.7473 30.2064C76.7473 16.326 65.5317 5 51.7867 5ZM51.7867 11.8745C51.9555 11.8745 52.0957 11.847 52.6598 12.5234C53.2239 13.1999 53.9331 14.5373 54.5079 16.3098C55.3732 18.978 55.6375 22.9507 55.8773 26.7691H47.696C47.9358 22.9507 48.2002 18.978 49.0655 16.3098C49.6403 14.5373 50.3495 13.1999 50.9136 12.5234C51.4777 11.847 51.6178 11.8745 51.7867 11.8745ZM42.5195 14.4434C41.3856 18.067 40.8633 22.3632 40.6492 26.7691H33.9615C34.9408 21.5095 38.1262 17.0728 42.5195 14.4434ZM61.0538 14.4434C65.4472 17.0728 68.6325 21.5095 69.6119 26.7691H62.9241C62.71 22.3632 62.1878 18.067 61.0538 14.4434ZM92.135 32.4934C89.9643 32.4934 87.8052 33.3619 86.3247 34.8833C84.8442 36.4048 84.0453 38.4013 83.7365 40.5136C83.4459 42.501 82.6395 48.1287 81.8484 53.636C80.9544 53.3269 80.0245 53.1437 79.0874 53.1436C76.9214 53.1436 74.7556 53.9663 73.122 55.6142V55.6186L67.91 60.8774C64.7442 64.0744 62.6294 65.2344 60.5043 66.2794C58.3791 67.3245 55.9003 68.3239 53.4486 70.7997C52.8217 71.4329 52.2836 72.1277 51.7867 72.8496C51.2893 72.1263 50.7526 71.4293 50.1247 70.7953C47.673 68.3193 45.1942 67.3245 43.0691 66.2794C40.9439 65.2344 38.8291 64.0744 35.6633 60.8774L30.4514 55.6142C28.8177 53.9663 26.652 53.1436 24.486 53.1436C23.5487 53.1437 22.6191 53.3278 21.7249 53.636C20.9339 48.1277 20.1274 42.5006 19.8369 40.5136C19.5281 38.4013 18.7292 36.4092 17.2487 34.8878C15.7681 33.3664 13.609 32.4979 11.4384 32.4979C7.36375 32.4979 4.0716 35.5527 3.31467 39.4618C3.11959 39.8905 3.01399 40.3552 3.00443 40.8269L3 40.9567H3.0133C3.01312 40.9788 3 40.9972 3 41.0193C3.00176 41.1721 3.0136 41.3246 3.03546 41.4758C4.04098 53.2191 4.46413 60.7421 5.06085 65.8766C5.66467 71.0723 6.57115 74.5045 9.03186 76.9894C13.7954 81.8019 17.5772 84.8469 21.1931 87.9098C25.6453 91.6797 25.6915 94.3201 25.6915 95.5138C25.6851 95.9693 25.7684 96.4215 25.9366 96.8442C26.1048 97.2668 26.3545 97.6515 26.6712 97.9759C26.9879 98.3003 27.3653 98.5578 27.7814 98.7337C28.1975 98.9095 28.6441 99 29.0952 99C29.5463 99 29.9929 98.9095 30.409 98.7337C30.8251 98.5578 31.2025 98.3003 31.5192 97.9759C31.8359 97.6515 32.0856 97.2668 32.2538 96.8442C32.422 96.4215 32.5053 95.9693 32.4989 95.5138C32.4989 92.9219 31.399 87.5799 25.5674 82.6421C21.8637 79.5048 18.3518 76.6824 13.8449 72.129C12.9518 71.2271 12.3747 69.8523 11.8195 65.0755C11.2735 60.3773 10.837 52.7271 9.83403 40.9925C9.85602 40.0667 10.5134 39.3723 11.4384 39.3723C12.0475 39.3723 12.1698 39.4714 12.3957 39.7035C12.6216 39.9357 12.9485 40.4821 13.1004 41.5206C13.5559 44.6364 16.1274 62.5379 16.1274 62.5379C16.1419 62.6567 16.1627 62.7747 16.1894 62.8914C16.4429 64.6427 17.2007 66.3294 18.5206 67.6624L26.8216 76.0496C27.1353 76.3795 27.5109 76.6428 27.9266 76.8243C28.3423 77.0057 28.7897 77.1015 29.2425 77.1062C29.6953 77.1108 30.1445 77.0242 30.5638 76.8514C30.983 76.6785 31.3639 76.4229 31.6842 76.0995C32.0044 75.7762 32.2575 75.3915 32.4286 74.9681C32.5998 74.5447 32.6856 74.0911 32.681 73.6338C32.6764 73.1765 32.5815 72.7248 32.4018 72.305C32.2222 71.8852 31.9614 71.5058 31.6347 71.1891L23.3337 62.8019C23.0924 62.5583 22.9701 62.27 22.9038 61.9739C22.8991 61.833 22.8857 61.6925 22.8639 61.5532L22.8595 61.513C22.89 61.1426 23.0347 60.7769 23.3337 60.4746C23.9981 59.8037 24.9709 59.8058 25.6383 60.4791L30.8458 65.7379C34.5533 69.4818 37.6891 71.2813 40.0864 72.4602C42.4836 73.639 43.7991 74.1283 45.3116 75.6557C47.3531 77.7173 48.3608 80.7449 48.3608 86.2494C48.3608 91.3887 48.3828 95.4643 48.383 95.4959V95.5317C48.3842 95.5556 48.3857 95.5795 48.3874 95.6033C48.3869 95.6929 48.3898 95.7825 48.3962 95.8719C48.3977 95.8793 48.3992 95.8868 48.4007 95.8942C48.4104 96.0023 48.4252 96.1098 48.445 96.2165C48.4676 96.3282 48.4957 96.4388 48.5292 96.5477C48.5586 96.6491 48.5926 96.7492 48.6311 96.8475C48.6548 96.9034 48.6799 96.9586 48.7065 97.0131C48.7301 97.069 48.7553 97.1242 48.7818 97.1787C48.7906 97.1937 48.7994 97.2086 48.8084 97.2235C48.8565 97.3092 48.9083 97.3928 48.9635 97.4741C48.9665 97.4801 48.9694 97.4861 48.9724 97.492C49.0333 97.5816 49.0984 97.6682 49.1674 97.7516C49.236 97.8356 49.3084 97.9162 49.3846 97.9933C49.4079 98.0145 49.4316 98.0354 49.4555 98.0559C49.5182 98.1181 49.5832 98.1778 49.6505 98.235C49.7387 98.3067 49.8304 98.3739 49.9253 98.4364C50.0114 98.4941 50.1002 98.5479 50.1912 98.5975C50.2452 98.6243 50.2998 98.6497 50.3552 98.6736C50.4106 98.7005 50.4668 98.7258 50.5236 98.7496C50.5412 98.7573 50.559 98.7647 50.5768 98.772C50.6655 98.8072 50.7557 98.8385 50.8471 98.866H50.8515C50.856 98.8675 50.8604 98.869 50.8648 98.8705C50.97 98.8995 51.0765 98.9234 51.1839 98.9421C51.2823 98.9599 51.3814 98.9734 51.4809 98.9824H51.4897C51.5753 98.9886 51.661 98.9916 51.7468 98.9913C51.7837 98.9934 51.8206 98.9949 51.8576 98.9958C51.9049 98.9938 51.9522 98.9908 51.9994 98.9868C52.0541 98.9852 52.1088 98.9822 52.1634 98.9779C52.1752 98.9765 52.187 98.975 52.1988 98.9734C52.2166 98.9706 52.2343 98.9676 52.252 98.9645C52.3473 98.9506 52.4419 98.9327 52.5357 98.9108C52.6464 98.8865 52.7559 98.8566 52.8636 98.8213C52.8681 98.8198 52.8725 98.8183 52.8769 98.8168C52.9792 98.7814 53.0798 98.741 53.1783 98.6959C53.2828 98.6489 53.3848 98.5967 53.4841 98.5393C53.5706 98.4893 53.6549 98.4356 53.7367 98.3782C53.7471 98.3708 53.7574 98.3633 53.7677 98.3558C53.7871 98.3396 53.8063 98.3232 53.8254 98.3066C53.8969 98.2541 53.9664 98.1989 54.0337 98.141C54.1189 98.0646 54.2002 97.9839 54.2774 97.8993C54.3539 97.8179 54.4264 97.7327 54.4946 97.6442L54.499 97.6397C54.5035 97.6338 54.5079 97.6278 54.5123 97.6218C54.5755 97.5351 54.6347 97.4455 54.6896 97.3533C54.7422 97.2675 54.791 97.1794 54.8358 97.0892C54.8418 97.0773 54.8477 97.0654 54.8536 97.0534C54.8976 96.9613 54.9375 96.8672 54.9732 96.7714C54.9777 96.7595 54.9822 96.7476 54.9865 96.7356C55.0203 96.64 55.0499 96.543 55.0752 96.4447C55.0782 96.4328 55.0811 96.4209 55.084 96.4089C55.1091 96.31 55.1298 96.2099 55.1461 96.1091C55.1555 96.0407 55.1629 95.972 55.1682 95.9032C55.1756 95.8452 55.1815 95.787 55.186 95.7286C55.1892 95.6645 55.1907 95.6004 55.1904 95.5362V95.4959C55.1906 95.4603 55.2126 91.3862 55.2126 86.2494C55.2126 80.7449 56.2203 77.7217 58.2617 75.6602C59.7743 74.1328 61.0897 73.639 63.487 72.4602C65.8842 71.2813 69.0201 69.4818 72.7275 65.7379L77.9351 60.4791C78.6025 59.8059 79.5752 59.8081 80.2397 60.4791C80.5374 60.7802 80.6824 61.1441 80.7139 61.513L80.7094 61.5488C80.6869 61.6939 80.6736 61.8404 80.6696 61.9874C80.6022 62.2803 80.4786 62.5651 80.2397 62.8064L71.9387 71.1891C71.612 71.5058 71.3512 71.8852 71.1715 72.305C70.9919 72.7248 70.8969 73.1765 70.8923 73.6338C70.8877 74.0911 70.9735 74.5447 71.1447 74.9681C71.3159 75.3915 71.569 75.7762 71.8892 76.0995C72.2094 76.4229 72.5903 76.6785 73.0096 76.8514C73.4288 77.0242 73.878 77.1108 74.3308 77.1062C74.7837 77.1015 75.231 77.0057 75.6467 76.8243C76.0624 76.6428 76.4381 76.3795 76.7517 76.0496L85.0527 67.6669C86.3803 66.3262 87.1395 64.6276 87.3884 62.8646C87.4129 62.7552 87.4321 62.6447 87.446 62.5334C87.446 62.5334 90.0175 44.6319 90.473 41.5161C90.6248 40.4777 90.9518 39.9357 91.1777 39.7035C91.4035 39.4714 91.5259 39.3679 92.135 39.3679C93.0625 39.3679 93.7254 40.0627 93.7437 40.9925C92.7407 52.7274 92.2998 60.3772 91.7538 65.0755C91.1987 69.8523 90.6215 71.2271 89.7284 72.129C85.2216 76.6824 81.7096 79.5048 78.006 82.6421C72.1744 87.5799 71.0744 92.9219 71.0744 95.5138C71.068 95.9693 71.1514 96.4215 71.3196 96.8442C71.4878 97.2668 71.7375 97.6515 72.0542 97.9759C72.3708 98.3003 72.7482 98.5578 73.1644 98.7337C73.5805 98.9095 74.0271 99 74.4781 99C74.9292 99 75.3758 98.9095 75.7919 98.7337C76.2081 98.5578 76.5854 98.3003 76.9021 97.9759C77.2188 97.6515 77.4685 97.2668 77.6367 96.8442C77.8049 96.4215 77.8883 95.9693 77.8819 95.5138C77.8819 94.3201 77.9281 91.6797 82.3803 87.9098C85.9961 84.8469 89.778 81.8019 94.5415 76.9894C97.0022 74.5045 97.9087 71.0723 98.5125 65.8766C99.1092 60.7421 99.5324 53.2191 100.538 41.4758C100.56 41.3232 100.572 41.1692 100.573 41.0149C100.573 40.9926 100.56 40.9743 100.56 40.9522H100.573L100.569 40.8269C100.561 40.3522 100.455 39.8843 100.259 39.4529C99.4993 35.5469 96.2074 32.4934 92.135 32.4934ZM33.9615 33.6436H40.6492C40.8633 38.0496 41.3856 42.3458 42.5195 45.9693C38.1262 43.3399 34.9408 38.9032 33.9615 33.6436ZM47.696 33.6436H55.8773C55.6375 37.462 55.3732 41.4348 54.5079 44.103C53.9331 45.8755 53.2239 47.2129 52.6598 47.8893C52.0957 48.5658 51.9555 48.5383 51.7867 48.5383C51.6179 48.5383 51.4777 48.5658 50.9136 47.8893C50.3495 47.2129 49.6403 45.8755 49.0655 44.103C48.2002 41.4348 47.9358 37.462 47.696 33.6436ZM62.9241 33.6436H69.6119C68.6325 38.9032 65.4472 43.3399 61.0538 45.9693C62.1878 42.3458 62.71 38.0496 62.9241 33.6436Z"/>
</mask>
<path d="M51.7867 5C38.293 5 27.2614 15.9226 26.8615 29.4545C26.7517 29.9528 26.7532 30.4696 26.8659 30.9672C27.2706 44.4949 38.2961 55.4128 51.7867 55.4128C65.5317 55.4128 76.7473 44.0868 76.7473 30.2064C76.7473 16.326 65.5317 5 51.7867 5ZM51.7867 11.8745C51.9555 11.8745 52.0957 11.847 52.6598 12.5234C53.2239 13.1999 53.9331 14.5373 54.5079 16.3098C55.3732 18.978 55.6375 22.9507 55.8773 26.7691H47.696C47.9358 22.9507 48.2002 18.978 49.0655 16.3098C49.6403 14.5373 50.3495 13.1999 50.9136 12.5234C51.4777 11.847 51.6178 11.8745 51.7867 11.8745ZM42.5195 14.4434C41.3856 18.067 40.8633 22.3632 40.6492 26.7691H33.9615C34.9408 21.5095 38.1262 17.0728 42.5195 14.4434ZM61.0538 14.4434C65.4472 17.0728 68.6325 21.5095 69.6119 26.7691H62.9241C62.71 22.3632 62.1878 18.067 61.0538 14.4434ZM92.135 32.4934C89.9643 32.4934 87.8052 33.3619 86.3247 34.8833C84.8442 36.4048 84.0453 38.4013 83.7365 40.5136C83.4459 42.501 82.6395 48.1287 81.8484 53.636C80.9544 53.3269 80.0245 53.1437 79.0874 53.1436C76.9214 53.1436 74.7556 53.9663 73.122 55.6142V55.6186L67.91 60.8774C64.7442 64.0744 62.6294 65.2344 60.5043 66.2794C58.3791 67.3245 55.9003 68.3239 53.4486 70.7997C52.8217 71.4329 52.2836 72.1277 51.7867 72.8496C51.2893 72.1263 50.7526 71.4293 50.1247 70.7953C47.673 68.3193 45.1942 67.3245 43.0691 66.2794C40.9439 65.2344 38.8291 64.0744 35.6633 60.8774L30.4514 55.6142C28.8177 53.9663 26.652 53.1436 24.486 53.1436C23.5487 53.1437 22.6191 53.3278 21.7249 53.636C20.9339 48.1277 20.1274 42.5006 19.8369 40.5136C19.5281 38.4013 18.7292 36.4092 17.2487 34.8878C15.7681 33.3664 13.609 32.4979 11.4384 32.4979C7.36375 32.4979 4.0716 35.5527 3.31467 39.4618C3.11959 39.8905 3.01399 40.3552 3.00443 40.8269L3 40.9567H3.0133C3.01312 40.9788 3 40.9972 3 41.0193C3.00176 41.1721 3.0136 41.3246 3.03546 41.4758C4.04098 53.2191 4.46413 60.7421 5.06085 65.8766C5.66467 71.0723 6.57115 74.5045 9.03186 76.9894C13.7954 81.8019 17.5772 84.8469 21.1931 87.9098C25.6453 91.6797 25.6915 94.3201 25.6915 95.5138C25.6851 95.9693 25.7684 96.4215 25.9366 96.8442C26.1048 97.2668 26.3545 97.6515 26.6712 97.9759C26.9879 98.3003 27.3653 98.5578 27.7814 98.7337C28.1975 98.9095 28.6441 99 29.0952 99C29.5463 99 29.9929 98.9095 30.409 98.7337C30.8251 98.5578 31.2025 98.3003 31.5192 97.9759C31.8359 97.6515 32.0856 97.2668 32.2538 96.8442C32.422 96.4215 32.5053 95.9693 32.4989 95.5138C32.4989 92.9219 31.399 87.5799 25.5674 82.6421C21.8637 79.5048 18.3518 76.6824 13.8449 72.129C12.9518 71.2271 12.3747 69.8523 11.8195 65.0755C11.2735 60.3773 10.837 52.7271 9.83403 40.9925C9.85602 40.0667 10.5134 39.3723 11.4384 39.3723C12.0475 39.3723 12.1698 39.4714 12.3957 39.7035C12.6216 39.9357 12.9485 40.4821 13.1004 41.5206C13.5559 44.6364 16.1274 62.5379 16.1274 62.5379C16.1419 62.6567 16.1627 62.7747 16.1894 62.8914C16.4429 64.6427 17.2007 66.3294 18.5206 67.6624L26.8216 76.0496C27.1353 76.3795 27.5109 76.6428 27.9266 76.8243C28.3423 77.0057 28.7897 77.1015 29.2425 77.1062C29.6953 77.1108 30.1445 77.0242 30.5638 76.8514C30.983 76.6785 31.3639 76.4229 31.6842 76.0995C32.0044 75.7762 32.2575 75.3915 32.4286 74.9681C32.5998 74.5447 32.6856 74.0911 32.681 73.6338C32.6764 73.1765 32.5815 72.7248 32.4018 72.305C32.2222 71.8852 31.9614 71.5058 31.6347 71.1891L23.3337 62.8019C23.0924 62.5583 22.9701 62.27 22.9038 61.9739C22.8991 61.833 22.8857 61.6925 22.8639 61.5532L22.8595 61.513C22.89 61.1426 23.0347 60.7769 23.3337 60.4746C23.9981 59.8037 24.9709 59.8058 25.6383 60.4791L30.8458 65.7379C34.5533 69.4818 37.6891 71.2813 40.0864 72.4602C42.4836 73.639 43.7991 74.1283 45.3116 75.6557C47.3531 77.7173 48.3608 80.7449 48.3608 86.2494C48.3608 91.3887 48.3828 95.4643 48.383 95.4959V95.5317C48.3842 95.5556 48.3857 95.5795 48.3874 95.6033C48.3869 95.6929 48.3898 95.7825 48.3962 95.8719C48.3977 95.8793 48.3992 95.8868 48.4007 95.8942C48.4104 96.0023 48.4252 96.1098 48.445 96.2165C48.4676 96.3282 48.4957 96.4388 48.5292 96.5477C48.5586 96.6491 48.5926 96.7492 48.6311 96.8475C48.6548 96.9034 48.6799 96.9586 48.7065 97.0131C48.7301 97.069 48.7553 97.1242 48.7818 97.1787C48.7906 97.1937 48.7994 97.2086 48.8084 97.2235C48.8565 97.3092 48.9083 97.3928 48.9635 97.4741C48.9665 97.4801 48.9694 97.4861 48.9724 97.492C49.0333 97.5816 49.0984 97.6682 49.1674 97.7516C49.236 97.8356 49.3084 97.9162 49.3846 97.9933C49.4079 98.0145 49.4316 98.0354 49.4555 98.0559C49.5182 98.1181 49.5832 98.1778 49.6505 98.235C49.7387 98.3067 49.8304 98.3739 49.9253 98.4364C50.0114 98.4941 50.1002 98.5479 50.1912 98.5975C50.2452 98.6243 50.2998 98.6497 50.3552 98.6736C50.4106 98.7005 50.4668 98.7258 50.5236 98.7496C50.5412 98.7573 50.559 98.7647 50.5768 98.772C50.6655 98.8072 50.7557 98.8385 50.8471 98.866H50.8515C50.856 98.8675 50.8604 98.869 50.8648 98.8705C50.97 98.8995 51.0765 98.9234 51.1839 98.9421C51.2823 98.9599 51.3814 98.9734 51.4809 98.9824H51.4897C51.5753 98.9886 51.661 98.9916 51.7468 98.9913C51.7837 98.9934 51.8206 98.9949 51.8576 98.9958C51.9049 98.9938 51.9522 98.9908 51.9994 98.9868C52.0541 98.9852 52.1088 98.9822 52.1634 98.9779C52.1752 98.9765 52.187 98.975 52.1988 98.9734C52.2166 98.9706 52.2343 98.9676 52.252 98.9645C52.3473 98.9506 52.4419 98.9327 52.5357 98.9108C52.6464 98.8865 52.7559 98.8566 52.8636 98.8213C52.8681 98.8198 52.8725 98.8183 52.8769 98.8168C52.9792 98.7814 53.0798 98.741 53.1783 98.6959C53.2828 98.6489 53.3848 98.5967 53.4841 98.5393C53.5706 98.4893 53.6549 98.4356 53.7367 98.3782C53.7471 98.3708 53.7574 98.3633 53.7677 98.3558C53.7871 98.3396 53.8063 98.3232 53.8254 98.3066C53.8969 98.2541 53.9664 98.1989 54.0337 98.141C54.1189 98.0646 54.2002 97.9839 54.2774 97.8993C54.3539 97.8179 54.4264 97.7327 54.4946 97.6442L54.499 97.6397C54.5035 97.6338 54.5079 97.6278 54.5123 97.6218C54.5755 97.5351 54.6347 97.4455 54.6896 97.3533C54.7422 97.2675 54.791 97.1794 54.8358 97.0892C54.8418 97.0773 54.8477 97.0654 54.8536 97.0534C54.8976 96.9613 54.9375 96.8672 54.9732 96.7714C54.9777 96.7595 54.9822 96.7476 54.9865 96.7356C55.0203 96.64 55.0499 96.543 55.0752 96.4447C55.0782 96.4328 55.0811 96.4209 55.084 96.4089C55.1091 96.31 55.1298 96.2099 55.1461 96.1091C55.1555 96.0407 55.1629 95.972 55.1682 95.9032C55.1756 95.8452 55.1815 95.787 55.186 95.7286C55.1892 95.6645 55.1907 95.6004 55.1904 95.5362V95.4959C55.1906 95.4603 55.2126 91.3862 55.2126 86.2494C55.2126 80.7449 56.2203 77.7217 58.2617 75.6602C59.7743 74.1328 61.0897 73.639 63.487 72.4602C65.8842 71.2813 69.0201 69.4818 72.7275 65.7379L77.9351 60.4791C78.6025 59.8059 79.5752 59.8081 80.2397 60.4791C80.5374 60.7802 80.6824 61.1441 80.7139 61.513L80.7094 61.5488C80.6869 61.6939 80.6736 61.8404 80.6696 61.9874C80.6022 62.2803 80.4786 62.5651 80.2397 62.8064L71.9387 71.1891C71.612 71.5058 71.3512 71.8852 71.1715 72.305C70.9919 72.7248 70.8969 73.1765 70.8923 73.6338C70.8877 74.0911 70.9735 74.5447 71.1447 74.9681C71.3159 75.3915 71.569 75.7762 71.8892 76.0995C72.2094 76.4229 72.5903 76.6785 73.0096 76.8514C73.4288 77.0242 73.878 77.1108 74.3308 77.1062C74.7837 77.1015 75.231 77.0057 75.6467 76.8243C76.0624 76.6428 76.4381 76.3795 76.7517 76.0496L85.0527 67.6669C86.3803 66.3262 87.1395 64.6276 87.3884 62.8646C87.4129 62.7552 87.4321 62.6447 87.446 62.5334C87.446 62.5334 90.0175 44.6319 90.473 41.5161C90.6248 40.4777 90.9518 39.9357 91.1777 39.7035C91.4035 39.4714 91.5259 39.3679 92.135 39.3679C93.0625 39.3679 93.7254 40.0627 93.7437 40.9925C92.7407 52.7274 92.2998 60.3772 91.7538 65.0755C91.1987 69.8523 90.6215 71.2271 89.7284 72.129C85.2216 76.6824 81.7096 79.5048 78.006 82.6421C72.1744 87.5799 71.0744 92.9219 71.0744 95.5138C71.068 95.9693 71.1514 96.4215 71.3196 96.8442C71.4878 97.2668 71.7375 97.6515 72.0542 97.9759C72.3708 98.3003 72.7482 98.5578 73.1644 98.7337C73.5805 98.9095 74.0271 99 74.4781 99C74.9292 99 75.3758 98.9095 75.7919 98.7337C76.2081 98.5578 76.5854 98.3003 76.9021 97.9759C77.2188 97.6515 77.4685 97.2668 77.6367 96.8442C77.8049 96.4215 77.8883 95.9693 77.8819 95.5138C77.8819 94.3201 77.9281 91.6797 82.3803 87.9098C85.9961 84.8469 89.778 81.8019 94.5415 76.9894C97.0022 74.5045 97.9087 71.0723 98.5125 65.8766C99.1092 60.7421 99.5324 53.2191 100.538 41.4758C100.56 41.3232 100.572 41.1692 100.573 41.0149C100.573 40.9926 100.56 40.9743 100.56 40.9522H100.573L100.569 40.8269C100.561 40.3522 100.455 39.8843 100.259 39.4529C99.4993 35.5469 96.2074 32.4934 92.135 32.4934ZM33.9615 33.6436H40.6492C40.8633 38.0496 41.3856 42.3458 42.5195 45.9693C38.1262 43.3399 34.9408 38.9032 33.9615 33.6436ZM47.696 33.6436H55.8773C55.6375 37.462 55.3732 41.4348 54.5079 44.103C53.9331 45.8755 53.2239 47.2129 52.6598 47.8893C52.0957 48.5658 51.9555 48.5383 51.7867 48.5383C51.6179 48.5383 51.4777 48.5658 50.9136 47.8893C50.3495 47.2129 49.6403 45.8755 49.0655 44.103C48.2002 41.4348 47.9358 37.462 47.696 33.6436ZM62.9241 33.6436H69.6119C68.6325 38.9032 65.4472 43.3399 61.0538 45.9693C62.1878 42.3458 62.71 38.0496 62.9241 33.6436Z" fill="#F3A31B" stroke="white" stroke-width="2.4" mask="url(#path-1-inside-1_850_3226)"/>
</svg>
