<svg width="104" height="104" viewBox="0 0 104 104" fill="none" xmlns="http://www.w3.org/2000/svg">
<mask id="path-1-inside-1_850_3212" fill="white">
<path d="M46.8121 5.00036C43.3279 5.00036 39.8415 6.3136 37.2044 8.94063C31.9248 14.1955 31.9248 22.8274 37.2044 28.0823V28.0869L55.4848 46.224C56.1479 46.8817 57.0455 47.2509 57.9812 47.2509C58.9169 47.2509 59.8145 46.8817 60.4775 46.224L78.758 28.0869V28.0823C84.0361 22.829 84.0374 14.2006 78.7626 8.94521C73.4872 3.68493 64.818 3.68493 59.5426 8.94521L57.9812 10.3764L56.4198 8.94521C53.7821 6.31507 50.2984 5.00036 46.8121 5.00036ZM69.1549 12.0002C70.8147 12.0002 72.4722 12.6419 73.7561 13.9221L73.7607 13.9267C76.3328 16.4867 76.3306 20.5349 73.7607 23.0962L57.9812 38.7518L42.2017 23.1008V23.0962C39.6318 20.5349 39.6296 16.4867 42.2017 13.9267L42.2063 13.9221C43.4902 12.6419 45.1516 12.0048 46.8121 12.0048C48.4725 12.0048 50.1294 12.6419 51.4133 13.9221C51.4464 13.9549 51.4802 13.987 51.5146 14.0185L55.5816 17.7615C56.2351 18.3623 57.0918 18.696 57.9812 18.696C58.8706 18.696 59.7273 18.3623 60.3808 17.7615L64.4478 14.0185C64.4822 13.987 64.516 13.9549 64.5491 13.9221C65.833 12.6419 67.4951 12.0002 69.1549 12.0002ZM93.621 44.9488C90.9794 44.9716 88.4705 46.0145 86.2425 47.6644C83.8507 49.4339 76.6542 54.7858 70.4261 59.4164C69.0755 55.1228 65.0697 51.9487 60.3394 51.9487H49.9809C43.3515 51.9487 40.2607 51.4137 37.6051 50.8524C34.9494 50.291 32.3874 49.6001 28.0941 49.6001C18.9331 49.6001 12.0258 55.455 7.50145 60.8521C2.97709 66.2492 0.523639 71.6408 0.523639 71.6408C0.330867 72.0619 0.223274 72.5167 0.207003 72.9792C0.190733 73.4417 0.266105 73.9028 0.428814 74.3363C0.591523 74.7698 0.838382 75.1671 1.15529 75.5056C1.4722 75.844 1.85296 76.117 2.27581 76.3089C2.69866 76.5008 3.15532 76.6078 3.61972 76.6239C4.08411 76.64 4.54714 76.5648 4.98236 76.4027C5.41758 76.2405 5.81647 75.9946 6.15624 75.6789C6.496 75.3632 6.77 74.9839 6.96257 74.5627C6.96257 74.5627 9.08276 69.9617 12.9317 65.3703C16.7806 60.779 22.0424 56.6458 28.0941 56.6458C31.6818 56.6458 33.2362 57.1292 36.1358 57.7421C39.0354 58.355 42.9446 58.9943 49.9809 58.9943H60.3394C62.3356 58.9943 63.8766 60.5291 63.8766 62.5172C63.8766 63.6198 63.3913 64.5705 62.6285 65.2098L62.5317 65.2832C62.4637 65.3358 62.3977 65.3909 62.3337 65.4483L62.3291 65.4529C61.7668 65.8254 61.0857 66.04 60.3394 66.04H43.8321C43.3634 66.0334 42.898 66.1197 42.4631 66.2938C42.0281 66.4678 41.6322 66.7263 41.2984 67.0541C40.9646 67.3818 40.6995 67.7724 40.5186 68.2031C40.3376 68.6338 40.2445 69.096 40.2445 69.5629C40.2445 70.0297 40.3376 70.492 40.5186 70.9226C40.6995 71.3533 40.9646 71.7439 41.2984 72.0717C41.6322 72.3995 42.0281 72.6579 42.4631 72.832C42.898 73.0061 43.3634 73.0923 43.8321 73.0857H60.3394C62.5576 73.0857 64.6202 72.3846 66.3315 71.205L66.3407 71.2004C66.4883 71.1204 66.6299 71.0299 66.7645 70.9298C66.7645 70.9298 86.9301 55.9328 90.4614 53.3202V53.3156C91.7919 52.3304 92.9054 52.0012 93.6855 51.9945C94.4656 51.9877 95.0477 52.1762 95.8548 52.9807C97.247 54.3661 97.2387 56.4934 95.8825 57.898C83.2541 68.4736 75.3102 75.5209 70.0622 79.6498C64.7489 83.8302 62.5207 84.8285 60.3394 84.8285C51.727 84.8285 42.183 82.48 32.0412 82.48C26.1458 82.48 22.002 85.6355 19.7806 88.5853C17.5592 91.5351 16.819 94.5439 16.819 94.5439C16.6942 94.9967 16.6615 95.4698 16.7228 95.9354C16.7842 96.401 16.9384 96.8497 17.1764 97.2551C17.4144 97.6604 17.7314 98.0144 18.1087 98.296C18.486 98.5776 18.916 98.7813 19.3734 98.8951C19.8309 99.0088 20.3066 99.0303 20.7725 98.9584C21.2385 98.8864 21.6853 98.7224 22.0867 98.476C22.488 98.2296 22.8359 97.9057 23.1098 97.5235C23.3837 97.1413 23.5782 96.7084 23.6817 96.2502C23.6817 96.2502 24.1206 94.5619 25.4365 92.8146C26.7524 91.0672 28.504 89.5257 32.0412 89.5257C41.0196 89.5257 50.5202 91.8742 60.3394 91.8742C64.8246 91.8742 68.7931 89.63 74.447 85.1817C80.0296 80.7896 87.8721 73.8136 100.424 63.3016C100.577 63.1939 100.722 63.0743 100.857 62.9438C100.873 62.9276 100.877 62.905 100.894 62.8887L100.903 62.8979L101.027 62.7695C101.372 62.4113 101.638 61.9846 101.806 61.5172C104.745 57.4015 104.553 51.6769 100.857 47.9992C98.9024 46.0512 96.2626 44.9262 93.621 44.9488Z"/>
</mask>
<path d="M46.8121 5.00036C43.3279 5.00036 39.8415 6.3136 37.2044 8.94063C31.9248 14.1955 31.9248 22.8274 37.2044 28.0823V28.0869L55.4848 46.224C56.1479 46.8817 57.0455 47.2509 57.9812 47.2509C58.9169 47.2509 59.8145 46.8817 60.4775 46.224L78.758 28.0869V28.0823C84.0361 22.829 84.0374 14.2006 78.7626 8.94521C73.4872 3.68493 64.818 3.68493 59.5426 8.94521L57.9812 10.3764L56.4198 8.94521C53.7821 6.31507 50.2984 5.00036 46.8121 5.00036ZM69.1549 12.0002C70.8147 12.0002 72.4722 12.6419 73.7561 13.9221L73.7607 13.9267C76.3328 16.4867 76.3306 20.5349 73.7607 23.0962L57.9812 38.7518L42.2017 23.1008V23.0962C39.6318 20.5349 39.6296 16.4867 42.2017 13.9267L42.2063 13.9221C43.4902 12.6419 45.1516 12.0048 46.8121 12.0048C48.4725 12.0048 50.1294 12.6419 51.4133 13.9221C51.4464 13.9549 51.4802 13.987 51.5146 14.0185L55.5816 17.7615C56.2351 18.3623 57.0918 18.696 57.9812 18.696C58.8706 18.696 59.7273 18.3623 60.3808 17.7615L64.4478 14.0185C64.4822 13.987 64.516 13.9549 64.5491 13.9221C65.833 12.6419 67.4951 12.0002 69.1549 12.0002ZM93.621 44.9488C90.9794 44.9716 88.4705 46.0145 86.2425 47.6644C83.8507 49.4339 76.6542 54.7858 70.4261 59.4164C69.0755 55.1228 65.0697 51.9487 60.3394 51.9487H49.9809C43.3515 51.9487 40.2607 51.4137 37.6051 50.8524C34.9494 50.291 32.3874 49.6001 28.0941 49.6001C18.9331 49.6001 12.0258 55.455 7.50145 60.8521C2.97709 66.2492 0.523639 71.6408 0.523639 71.6408C0.330867 72.0619 0.223274 72.5167 0.207003 72.9792C0.190733 73.4417 0.266105 73.9028 0.428814 74.3363C0.591523 74.7698 0.838382 75.1671 1.15529 75.5056C1.4722 75.844 1.85296 76.117 2.27581 76.3089C2.69866 76.5008 3.15532 76.6078 3.61972 76.6239C4.08411 76.64 4.54714 76.5648 4.98236 76.4027C5.41758 76.2405 5.81647 75.9946 6.15624 75.6789C6.496 75.3632 6.77 74.9839 6.96257 74.5627C6.96257 74.5627 9.08276 69.9617 12.9317 65.3703C16.7806 60.779 22.0424 56.6458 28.0941 56.6458C31.6818 56.6458 33.2362 57.1292 36.1358 57.7421C39.0354 58.355 42.9446 58.9943 49.9809 58.9943H60.3394C62.3356 58.9943 63.8766 60.5291 63.8766 62.5172C63.8766 63.6198 63.3913 64.5705 62.6285 65.2098L62.5317 65.2832C62.4637 65.3358 62.3977 65.3909 62.3337 65.4483L62.3291 65.4529C61.7668 65.8254 61.0857 66.04 60.3394 66.04H43.8321C43.3634 66.0334 42.898 66.1197 42.4631 66.2938C42.0281 66.4678 41.6322 66.7263 41.2984 67.0541C40.9646 67.3818 40.6995 67.7724 40.5186 68.2031C40.3376 68.6338 40.2445 69.096 40.2445 69.5629C40.2445 70.0297 40.3376 70.492 40.5186 70.9226C40.6995 71.3533 40.9646 71.7439 41.2984 72.0717C41.6322 72.3995 42.0281 72.6579 42.4631 72.832C42.898 73.0061 43.3634 73.0923 43.8321 73.0857H60.3394C62.5576 73.0857 64.6202 72.3846 66.3315 71.205L66.3407 71.2004C66.4883 71.1204 66.6299 71.0299 66.7645 70.9298C66.7645 70.9298 86.9301 55.9328 90.4614 53.3202V53.3156C91.7919 52.3304 92.9054 52.0012 93.6855 51.9945C94.4656 51.9877 95.0477 52.1762 95.8548 52.9807C97.247 54.3661 97.2387 56.4934 95.8825 57.898C83.2541 68.4736 75.3102 75.5209 70.0622 79.6498C64.7489 83.8302 62.5207 84.8285 60.3394 84.8285C51.727 84.8285 42.183 82.48 32.0412 82.48C26.1458 82.48 22.002 85.6355 19.7806 88.5853C17.5592 91.5351 16.819 94.5439 16.819 94.5439C16.6942 94.9967 16.6615 95.4698 16.7228 95.9354C16.7842 96.401 16.9384 96.8497 17.1764 97.2551C17.4144 97.6604 17.7314 98.0144 18.1087 98.296C18.486 98.5776 18.916 98.7813 19.3734 98.8951C19.8309 99.0088 20.3066 99.0303 20.7725 98.9584C21.2385 98.8864 21.6853 98.7224 22.0867 98.476C22.488 98.2296 22.8359 97.9057 23.1098 97.5235C23.3837 97.1413 23.5782 96.7084 23.6817 96.2502C23.6817 96.2502 24.1206 94.5619 25.4365 92.8146C26.7524 91.0672 28.504 89.5257 32.0412 89.5257C41.0196 89.5257 50.5202 91.8742 60.3394 91.8742C64.8246 91.8742 68.7931 89.63 74.447 85.1817C80.0296 80.7896 87.8721 73.8136 100.424 63.3016C100.577 63.1939 100.722 63.0743 100.857 62.9438C100.873 62.9276 100.877 62.905 100.894 62.8887L100.903 62.8979L101.027 62.7695C101.372 62.4113 101.638 61.9846 101.806 61.5172C104.745 57.4015 104.553 51.6769 100.857 47.9992C98.9024 46.0512 96.2626 44.9262 93.621 44.9488Z" fill="#F3A31B" stroke="white" stroke-width="2.4" mask="url(#path-1-inside-1_850_3212)"/>
</svg>
